<svg width="73" height="47" viewBox="0 0 73 47" fill="none" xmlns="http://www.w3.org/2000/svg">
<path d="M0 20.5C0 9.45431 8.95431 0.5 20 0.5H46V26.5C46 37.5457 37.0457 46.5 26 46.5H0V20.5Z" fill="#22DF03"/>
<path d="M17.688 32.172C17.9227 32.1933 18.232 32.2147 18.616 32.236C19 32.236 19.5227 32.236 20.184 32.236C22.8933 32.236 24.9093 31.5533 26.232 30.188C27.576 28.8013 28.248 26.8707 28.248 24.396C28.248 21.8787 27.5973 19.948 26.296 18.604C24.9947 17.26 22.9787 16.588 20.248 16.588C19.0533 16.588 18.2 16.62 17.688 16.684V32.172ZM32.472 24.396C32.472 26.316 32.1733 27.9907 31.576 29.42C30.9787 30.828 30.1253 32.012 29.016 32.972C27.928 33.9107 26.6053 34.6147 25.048 35.084C23.512 35.532 21.8053 35.756 19.928 35.756C19.032 35.756 18.0187 35.7133 16.888 35.628C15.7573 35.564 14.68 35.4147 13.656 35.18V13.644C14.68 13.4093 15.768 13.26 16.92 13.196C18.072 13.132 19.096 13.1 19.992 13.1C21.848 13.1 23.544 13.324 25.08 13.772C26.616 14.1987 27.928 14.8813 29.016 15.82C30.1253 16.7373 30.9787 17.9107 31.576 19.34C32.1733 20.748 32.472 22.4333 32.472 24.396Z" fill="#F2F2F2"/>
<path d="M68.376 35.5C68.0773 34.6253 67.768 33.7613 67.448 32.908C67.128 32.0547 66.8187 31.18 66.52 30.284H57.176C56.8773 31.18 56.568 32.0653 56.248 32.94C55.9493 33.7933 55.6507 34.6467 55.352 35.5H51.16C51.992 33.132 52.7813 30.9453 53.528 28.94C54.2747 26.9347 55 25.036 55.704 23.244C56.4293 21.452 57.144 19.7453 57.848 18.124C58.552 16.5027 59.2773 14.9027 60.024 13.324H63.832C64.5787 14.9027 65.304 16.5027 66.008 18.124C66.712 19.7453 67.416 21.452 68.12 23.244C68.8453 25.036 69.5813 26.9347 70.328 28.94C71.096 30.9453 71.896 33.132 72.728 35.5H68.376ZM61.848 17.612C61.3573 18.7427 60.792 20.1187 60.152 21.74C59.5333 23.3613 58.8827 25.1213 58.2 27.02H65.496C64.8133 25.1213 64.152 23.3507 63.512 21.708C62.872 20.0653 62.3173 18.7 61.848 17.612Z" fill="black"/>
</svg>
