<svg width="600" height="70" viewBox="0 0 600 70" fill="none" xmlns="http://www.w3.org/2000/svg">
<path d="M154.4 45L150.75 48.4171L150.76 48.4274L150.769 48.4377L154.4 45ZM151.35 24L155.988 25.8689L155.992 25.857L155.997 25.8452L151.35 24ZM155.05 18.3L158.547 21.8733L158.567 21.8545L158.586 21.8355L155.05 18.3ZM160.65 14.75L158.918 10.0595L158.918 10.0595L160.65 14.75ZM171.7 13.9L170.746 18.8081L170.812 18.8209L170.878 18.832L171.7 13.9ZM174.85 14.65L173.269 19.3934L173.349 19.4201L173.43 19.444L174.85 14.65ZM178.4 16.2L183.109 17.8817L184.462 14.0925L181.05 11.96L178.4 16.2ZM176.15 22.5L173.804 26.9156L178.913 29.6296L180.859 24.1817L176.15 22.5ZM172.4 21.05L171.026 25.8576L171.041 25.8618L171.056 25.866L172.4 21.05ZM164.05 21.05L162.428 16.3203L162.407 16.3276L162.386 16.335L164.05 21.05ZM161 23L157.464 19.4645L157.464 19.4645L161 23ZM158.6 36L153.736 37.1581L153.752 37.2271L153.771 37.2956L158.6 36ZM160.3 39.55L156.332 42.5922L156.363 42.6331L156.396 42.6735L160.3 39.55ZM163.4 41.95L161.26 46.4687L161.309 46.4919L161.358 46.5141L163.4 41.95ZM171.05 42.6L170.317 37.654H170.317L171.05 42.6ZM173.45 42.15L174.608 47.014L174.716 46.9882L174.824 46.9576L173.45 42.15ZM175.3 41.5L177.304 46.0808L177.304 46.0808L175.3 41.5ZM176.75 40.85L181.478 39.2235L179.678 33.9916L174.655 36.3102L176.75 40.85ZM178.9 47.1L181.492 51.376L184.94 49.2862L183.628 45.4735L178.9 47.1ZM174.25 48.9L175.538 53.7312L174.25 48.9ZM167.3 44.7C162.6 44.7 159.788 43.4181 158.031 41.5623L150.769 48.4377C154.945 52.8485 160.734 54.7 167.3 54.7V44.7ZM158.05 41.5829C156.247 39.6564 155 36.5923 155 31.65H145C145 38.241 146.687 44.077 150.75 48.4171L158.05 41.5829ZM155 31.65C155 29.3042 155.368 27.4066 155.988 25.8689L146.712 22.1311C145.532 25.0601 145 28.2624 145 31.65H155ZM155.997 25.8452C156.668 24.1552 157.534 22.865 158.547 21.8733L151.553 14.7267C149.433 16.8017 147.832 19.3115 146.703 22.1548L155.997 25.8452ZM158.586 21.8355C159.62 20.8014 160.863 20.0012 162.382 19.4405L158.918 10.0595C156.103 11.0988 153.614 12.6653 151.514 14.7645L158.586 21.8355ZM162.382 19.4405C163.943 18.8641 165.701 18.55 167.7 18.55V8.55C164.633 8.55 161.69 9.03588 158.918 10.0595L162.382 19.4405ZM167.7 18.55C168.908 18.55 169.915 18.6466 170.746 18.8081L172.654 8.99192C171.085 8.68677 169.426 8.55 167.7 8.55V18.55ZM170.878 18.832C171.888 19.0004 172.674 19.1952 173.269 19.3934L176.431 9.90658C175.226 9.50475 173.912 9.19963 172.522 8.96803L170.878 18.832ZM173.43 19.444C174.151 19.6576 174.606 19.8433 174.864 19.9721L179.336 11.0279C178.394 10.5567 177.349 10.1757 176.27 9.85601L173.43 19.444ZM174.864 19.9721C175.134 20.107 175.345 20.2164 175.505 20.3024C175.584 20.3449 175.644 20.3785 175.688 20.4037C175.733 20.4297 175.752 20.4413 175.75 20.44L181.05 11.96C180.569 11.6597 179.957 11.3381 179.336 11.0279L174.864 19.9721ZM173.691 14.5183L171.441 20.8183L180.859 24.1817L183.109 17.8817L173.691 14.5183ZM178.496 18.0844C177.047 17.3149 175.448 16.7096 173.744 16.234L171.056 25.866C172.219 26.1904 173.119 26.5518 173.804 26.9156L178.496 18.0844ZM173.774 16.2424C171.836 15.6888 169.76 15.45 167.6 15.45V25.45C169.04 25.45 170.164 25.6112 171.026 25.8576L173.774 16.2424ZM167.6 15.45C165.833 15.45 164.102 15.7464 162.428 16.3203L165.672 25.7797C166.331 25.5536 166.967 25.45 167.6 25.45V15.45ZM162.386 16.335C160.507 16.9981 158.861 18.0684 157.464 19.4645L164.536 26.5355C164.939 26.1316 165.326 25.9019 165.714 25.765L162.386 16.335ZM157.464 19.4645C156.001 20.9276 154.957 22.7043 154.228 24.62L163.572 28.18C163.909 27.2957 164.265 26.8057 164.536 26.5355L157.464 19.4645ZM154.228 24.62C153.419 26.7437 153.1 29.0834 153.1 31.5H163.1C163.1 29.9166 163.315 28.8563 163.572 28.18L154.228 24.62ZM153.1 31.5C153.1 33.4472 153.303 35.3392 153.736 37.1581L163.464 34.8419C163.23 33.8608 163.1 32.7528 163.1 31.5H153.1ZM153.771 37.2956C154.286 39.2176 155.12 41.0118 156.332 42.5922L164.268 36.5078C163.946 36.0882 163.647 35.5157 163.429 34.7044L153.771 37.2956ZM156.396 42.6735C157.714 44.3208 159.372 45.5748 161.26 46.4687L165.54 37.4313C164.894 37.1252 164.486 36.7792 164.204 36.4265L156.396 42.6735ZM161.358 46.5141C163.428 47.44 165.697 47.8 168 47.8V37.8C166.703 37.8 165.905 37.5933 165.442 37.3859L161.358 46.5141ZM168 47.8C169.322 47.8 170.59 47.7228 171.783 47.546L170.317 37.654C169.71 37.7439 168.945 37.8 168 37.8V47.8ZM171.783 47.546C172.79 47.3968 173.737 47.2215 174.608 47.014L172.292 37.286C171.763 37.4118 171.11 37.5366 170.317 37.654L171.783 47.546ZM174.824 46.9576C175.688 46.7107 176.523 46.4227 177.304 46.0808L173.296 36.9192C173.011 37.044 172.612 37.1893 172.076 37.3424L174.824 46.9576ZM177.304 46.0808C177.862 45.8369 178.376 45.6064 178.845 45.3898L174.655 36.3102C174.257 36.4936 173.805 36.6965 173.296 36.9192L177.304 46.0808ZM172.022 42.4765L174.172 48.7265L183.628 45.4735L181.478 39.2235L172.022 42.4765ZM176.308 42.824C175.784 43.1418 174.746 43.5931 172.962 44.0688L175.538 53.7312C177.754 53.1403 179.816 52.3916 181.492 51.376L176.308 42.824ZM172.962 44.0688C171.478 44.4645 169.61 44.7 167.3 44.7V54.7C170.256 54.7 173.022 54.4021 175.538 53.7312L172.962 44.0688ZM206.536 41.5L211.251 43.1641L211.256 43.1498L211.261 43.1356L206.536 41.5ZM203.936 45.9L207.571 49.3331L207.594 49.3083L207.618 49.2831L203.936 45.9ZM199.836 48.7L197.913 44.0846L197.895 44.0919L197.878 44.0992L199.836 48.7ZM189.236 48.7L187.278 53.3008L187.295 53.3081L187.313 53.3154L189.236 48.7ZM185.186 45.9L181.504 49.2831L181.527 49.3083L181.551 49.3331L185.186 45.9ZM182.536 41.5L177.84 43.216L177.845 43.2308L177.851 43.2455L182.536 41.5ZM182.536 30.15L177.881 28.3246L177.865 28.3644L177.851 28.4045L182.536 30.15ZM185.236 25.8L181.651 22.3146L181.626 22.3406L181.601 22.3669L185.236 25.8ZM189.336 23L187.413 18.3846L187.395 18.3919L187.378 18.3992L189.336 23ZM199.736 23L197.778 27.6008L197.795 27.6081L197.813 27.6154L199.736 23ZM203.836 25.8L200.201 29.2331L200.201 29.2331L203.836 25.8ZM206.486 30.15L201.801 31.8955L206.486 30.15ZM198.436 30.4L194.292 33.1974L194.332 33.2573L194.374 33.316L198.436 30.4ZM190.586 30.4L194.648 33.316L194.665 33.2918L194.682 33.2673L190.586 30.4ZM190.586 41.3L186.457 44.1198L186.473 44.1437L186.49 44.1673L190.586 41.3ZM198.436 41.3L194.307 38.4802L194.299 38.4914L194.292 38.5026L198.436 41.3ZM202.436 35.8C202.436 37.3797 202.207 38.7193 201.811 39.8644L211.261 43.1356C212.064 40.814 212.436 38.3536 212.436 35.8H202.436ZM201.821 39.8359C201.428 40.9481 200.897 41.8179 200.254 42.5169L207.618 49.2831C209.242 47.5155 210.443 45.4519 211.251 43.1641L201.821 39.8359ZM200.301 42.4669C199.673 43.1317 198.899 43.6738 197.913 44.0846L201.759 53.3154C203.973 52.3928 205.932 51.0683 207.571 49.3331L200.301 42.4669ZM197.878 44.0992C197.019 44.4648 195.933 44.7 194.536 44.7V54.7C197.072 54.7 199.519 54.2686 201.794 53.3008L197.878 44.0992ZM194.536 44.7C193.187 44.7 192.083 44.4696 191.159 44.0846L187.313 53.3154C189.589 54.2637 192.019 54.7 194.536 54.7V44.7ZM191.194 44.0992C190.24 43.6934 189.467 43.1504 188.821 42.4669L181.551 49.3331C183.172 51.0496 185.098 52.3732 187.278 53.3008L191.194 44.0992ZM188.868 42.5169C188.207 41.7977 187.648 40.8995 187.221 39.7545L177.851 43.2455C178.691 45.5005 179.899 47.5357 181.504 49.2831L188.868 42.5169ZM187.232 39.784C186.822 38.6623 186.586 37.351 186.586 35.8H176.586C176.586 38.3823 176.983 40.871 177.84 43.216L187.232 39.784ZM186.586 35.8C186.586 34.2473 186.823 32.9651 187.221 31.8955L177.851 28.4045C176.982 30.7349 176.586 33.2194 176.586 35.8H186.586ZM187.191 31.9754C187.649 30.8083 188.222 29.9204 188.871 29.2331L181.601 22.3669C179.983 24.0796 178.757 26.0917 177.881 28.3246L187.191 31.9754ZM188.821 29.2854C189.516 28.5699 190.327 28.012 191.294 27.6008L187.378 18.3992C185.211 19.3213 183.289 20.6301 181.651 22.3146L188.821 29.2854ZM191.259 27.6154C192.204 27.2216 193.278 27 194.536 27V17C192.06 17 189.668 17.445 187.413 18.3846L191.259 27.6154ZM194.536 27C195.841 27 196.899 27.2265 197.778 27.6008L201.694 18.3992C199.44 17.4402 197.031 17 194.536 17V27ZM197.813 27.6154C198.799 28.0262 199.573 28.5683 200.201 29.2331L207.471 22.3669C205.832 20.6317 203.873 19.3072 201.659 18.3846L197.813 27.6154ZM200.201 29.2331C200.831 29.9003 201.378 30.7602 201.801 31.8955L211.171 28.4045C210.328 26.1398 209.108 24.0997 207.471 22.3669L200.201 29.2331ZM201.801 31.8955C202.199 32.9651 202.436 34.2473 202.436 35.8H212.436C212.436 33.2194 212.04 30.7349 211.171 28.4045L201.801 31.8955ZM204.836 35.8C204.836 32.8935 204.255 29.9323 202.498 27.484L194.374 33.316C194.483 33.4677 194.836 34.1065 194.836 35.8H204.836ZM202.58 27.6026C200.689 24.8016 197.785 23.4 194.536 23.4V33.4C194.634 33.4 194.668 33.4096 194.651 33.4059C194.632 33.4017 194.577 33.3866 194.504 33.3491C194.43 33.3112 194.368 33.2658 194.323 33.2247C194.279 33.1852 194.272 33.168 194.292 33.1974L202.58 27.6026ZM194.536 23.4C191.291 23.4 188.407 24.7937 186.49 27.5327L194.682 33.2673C194.71 33.2274 194.712 33.2333 194.68 33.262C194.646 33.2923 194.595 33.3291 194.532 33.3608C194.47 33.3921 194.425 33.4043 194.412 33.4072C194.401 33.4095 194.438 33.4 194.536 33.4V23.4ZM186.524 27.484C184.767 29.9323 184.186 32.8935 184.186 35.8H194.186C194.186 34.1065 194.539 33.4677 194.648 33.316L186.524 27.484ZM184.186 35.8C184.186 38.7265 184.774 41.656 186.457 44.1198L194.715 38.4802C194.531 38.2107 194.186 37.4735 194.186 35.8H184.186ZM186.49 44.1673C188.407 46.9063 191.291 48.3 194.536 48.3V38.3C194.438 38.3 194.401 38.2905 194.412 38.2928C194.425 38.2957 194.47 38.3079 194.532 38.3392C194.595 38.3709 194.646 38.4077 194.68 38.438C194.712 38.4667 194.71 38.4726 194.682 38.4327L186.49 44.1673ZM194.536 48.3C197.785 48.3 200.689 46.8984 202.58 44.0974L194.292 38.5026C194.272 38.532 194.279 38.5148 194.323 38.4753C194.368 38.4342 194.43 38.3888 194.504 38.3509C194.577 38.3134 194.632 38.2983 194.651 38.2941C194.668 38.2904 194.634 38.3 194.536 38.3V48.3ZM202.565 44.1198C204.248 41.656 204.836 38.7265 204.836 35.8H194.836C194.836 37.4735 194.491 38.2107 194.307 38.4802L202.565 44.1198ZM228.507 30.55L224.484 33.5193L224.501 33.5425L224.519 33.5655L228.507 30.55ZM222.057 28.55L222.351 33.5414L222.496 33.5328L222.641 33.5158L222.057 28.55ZM220.657 28.7L219.763 23.7806L215.657 24.5271V28.7H220.657ZM220.657 42.15H215.657V44.8798L217.953 46.3559L220.657 42.15ZM222.457 42.9L221.141 47.7238L221.168 47.7311L221.195 47.7381L222.457 42.9ZM236.907 41.4L232.118 39.9633L236.907 41.4ZM234.707 45.7L230.813 42.5634V42.5634L234.707 45.7ZM231.107 48.5L233.216 53.0336L233.216 53.0336L231.107 48.5ZM223.257 49.2L224.342 44.3191L223.257 49.2ZM220.657 48.35L222.671 43.7734L215.657 40.6874V48.35H220.657ZM220.657 58.25V63.25H225.657V58.25H220.657ZM213.207 58.25H208.207V63.25H213.207V58.25ZM213.207 23.6L211.77 18.8109L208.207 19.8798V23.6H213.207ZM215.507 23.05L216.451 27.96L216.542 27.9426L216.631 27.922L215.507 23.05ZM218.207 22.55L217.524 17.5969L217.512 17.5985L217.5 17.6003L218.207 22.55ZM221.107 22.25L221.451 27.2382L221.528 27.2329L221.605 27.2252L221.107 22.25ZM229.757 23.1L227.932 27.7549L227.971 27.7705L228.011 27.7854L229.757 23.1ZM234.057 25.85L230.472 29.3354L230.497 29.3606L230.521 29.3855L234.057 25.85ZM236.707 30.15L231.992 31.8141L232.007 31.8549L232.022 31.8955L236.707 30.15ZM235.057 36.05C235.057 33.0311 234.378 30.0241 232.495 27.5345L224.519 33.5655C224.703 33.8093 225.057 34.4689 225.057 36.05H235.057ZM232.53 27.5807C230.387 24.6772 227.223 23.45 223.907 23.45V33.45C224.13 33.45 224.282 33.4692 224.375 33.4876C224.467 33.5056 224.505 33.523 224.506 33.5234C224.507 33.524 224.503 33.5222 224.495 33.5173C224.487 33.5125 224.479 33.5068 224.472 33.501C224.456 33.4875 224.461 33.4874 224.484 33.5193L232.53 27.5807ZM223.907 23.45C223.077 23.45 222.262 23.4914 221.473 23.5842L222.641 33.5158C222.985 33.4753 223.404 33.45 223.907 33.45V23.45ZM221.763 23.5586C221.088 23.5984 220.402 23.6644 219.763 23.7806L221.551 33.6193C221.645 33.6023 221.893 33.5683 222.351 33.5414L221.763 23.5586ZM215.657 28.7V42.15H225.657V28.7H215.657ZM217.953 46.3559C218.974 47.0121 220.085 47.4357 221.141 47.7238L223.773 38.0762C223.579 38.0234 223.453 37.9773 223.38 37.9471C223.307 37.9166 223.309 37.9106 223.361 37.9441L217.953 46.3559ZM221.195 47.7381C222.36 48.042 223.55 48.2 224.757 48.2V38.2C224.43 38.2 224.088 38.158 223.719 38.0619L221.195 47.7381ZM224.757 48.2C227.766 48.2 230.736 47.1054 232.749 44.39C234.554 41.9549 235.057 38.905 235.057 36.05H225.057C225.057 36.949 224.972 37.5727 224.872 37.9788C224.773 38.3803 224.68 38.4822 224.715 38.435C224.772 38.3589 224.891 38.2534 225.025 38.193C225.131 38.1453 225.083 38.2 224.757 38.2V48.2ZM232.657 35.85C232.657 37.4766 232.457 38.8335 232.118 39.9633L241.696 42.8367C242.357 40.6332 242.657 38.2901 242.657 35.85H232.657ZM232.118 39.9633C231.78 41.0904 231.325 41.9277 230.813 42.5634L238.601 48.8367C240.022 47.0723 241.034 45.0429 241.696 42.8367L232.118 39.9633ZM230.813 42.5634C230.34 43.1514 229.756 43.6139 228.998 43.9664L233.216 53.0336C235.325 52.0527 237.141 50.6486 238.601 48.8366L230.813 42.5634ZM228.998 43.9664C228.334 44.2752 227.426 44.5 226.157 44.5V54.5C228.622 54.5 231.013 54.0581 233.216 53.0336L228.998 43.9664ZM226.157 44.5C225.445 44.5 224.846 44.4311 224.342 44.3191L222.172 54.0809C223.468 54.3689 224.802 54.5 226.157 54.5V44.5ZM224.342 44.3191C223.757 44.189 223.201 44.0069 222.671 43.7734L218.643 52.9266C219.779 53.4265 220.958 53.811 222.172 54.0809L224.342 44.3191ZM215.657 48.35V58.25H225.657V48.35H215.657ZM220.657 53.25H213.207V63.25H220.657V53.25ZM218.207 58.25V23.6H208.207V58.25H218.207ZM214.644 28.3891C215.112 28.2486 215.709 28.1028 216.451 27.96L214.563 18.14C213.572 18.3306 212.635 18.5514 211.77 18.8109L214.644 28.3891ZM216.631 27.922C217.352 27.7556 218.113 27.6142 218.914 27.4997L217.5 17.6003C216.435 17.7524 215.395 17.9444 214.383 18.178L216.631 27.922ZM218.89 27.5031C219.745 27.3852 220.599 27.2969 221.451 27.2382L220.763 17.2618C219.682 17.3364 218.602 17.4481 217.524 17.5969L218.89 27.5031ZM221.605 27.2252C222.458 27.1398 223.241 27.1 223.957 27.1V17.1C222.873 17.1 221.756 17.1602 220.61 17.2748L221.605 27.2252ZM223.957 27.1C225.613 27.1 226.911 27.3545 227.932 27.7549L231.582 18.4451C229.203 17.5122 226.634 17.1 223.957 17.1V27.1ZM228.011 27.7854C229.076 28.1821 229.864 28.7103 230.472 29.3354L237.642 22.3646C235.916 20.5897 233.838 19.2846 231.503 18.4146L228.011 27.7854ZM230.521 29.3855C231.113 29.9768 231.617 30.752 231.992 31.8141L241.422 28.4859C240.597 26.148 239.335 24.0565 237.593 22.3145L230.521 29.3855ZM232.022 31.8955C232.417 32.9566 232.657 34.2535 232.657 35.85H242.657C242.657 33.2465 242.264 30.7434 241.392 28.4045L232.022 31.8955ZM266.049 22.7L270.844 24.1194L272.744 17.7H266.049V22.7ZM261.349 36.95L256.658 35.2215L261.349 36.95ZM255.999 49.85L260.53 51.9644L260.535 51.9545L255.999 49.85ZM253.899 53.65L249.76 50.8458L249.739 50.8761L249.719 50.9067L253.899 53.65ZM251.599 56.25L248.476 52.3457L248.429 52.383L248.383 52.4215L251.599 56.25ZM248.749 57.75L247.395 52.9367L247.304 52.9624L247.214 52.9915L248.749 57.75ZM241.849 57.9L242.985 53.0308L242.924 53.0165L242.862 53.0037L241.849 57.9ZM239.449 57.2L234.564 56.1327L233.677 60.1947L237.509 61.8082L239.449 57.2ZM240.749 51.25L242.392 46.5275L237.068 44.6756L235.864 50.1827L240.749 51.25ZM242.799 51.8L243.621 46.868L242.799 51.8ZM247.749 50.85L244.297 47.2332L244.213 47.3135L244.132 47.3976L247.749 50.85ZM249.599 47.9L254.25 49.7358L255.078 47.6378L254.053 45.6284L249.599 47.9ZM244.499 36.7L239.87 38.5888L239.875 38.6019L244.499 36.7ZM239.699 22.7V17.7H233.041L234.897 24.094L239.699 22.7ZM247.599 22.7L252.443 21.4581L251.479 17.7H247.599V22.7ZM248.749 26.95L243.938 28.3098L243.955 28.3728L243.975 28.4353L248.749 26.95ZM250.199 31.55L245.436 33.0702L245.441 33.0852L245.446 33.1001L250.199 31.55ZM251.699 36.05L246.967 37.6634L246.983 37.7112L247 37.7587L251.699 36.05ZM253.199 40.05L248.539 41.8622L253.373 54.2911L257.902 41.7482L253.199 40.05ZM255.899 31.55L251.107 30.1226L251.097 30.1563L251.088 30.1902L255.899 31.55ZM257.199 26.95L252.388 25.5902L252.378 25.6259L252.368 25.6617L257.199 26.95ZM258.349 22.7V17.7H254.47L253.506 21.4581L258.349 22.7ZM261.255 21.2806C259.782 26.2551 258.249 30.9011 256.658 35.2215L266.041 38.6785C267.716 34.1322 269.316 29.2782 270.844 24.1194L261.255 21.2806ZM256.658 35.2215C255.07 39.531 253.338 43.7054 251.464 47.7455L260.535 51.9545C262.527 47.6612 264.362 43.2356 266.041 38.6785L256.658 35.2215ZM251.468 47.7356C250.847 49.068 250.272 50.0891 249.76 50.8458L258.039 56.4542C258.926 55.1443 259.752 53.632 260.53 51.9644L251.468 47.7356ZM249.719 50.9067C249.253 51.6166 248.827 52.065 248.476 52.3457L254.723 60.1543C256.039 59.1017 257.145 57.8168 258.079 56.3933L249.719 50.9067ZM248.383 52.4215C248.104 52.6563 247.791 52.8254 247.395 52.9367L250.103 62.5633C251.84 62.0746 253.428 61.2437 254.815 60.0785L248.383 52.4215ZM247.214 52.9915C246.796 53.1262 246.121 53.25 245.099 53.25V63.25C246.878 63.25 248.635 63.0405 250.284 62.5085L247.214 52.9915ZM245.099 53.25C244.264 53.25 243.566 53.1664 242.985 53.0308L240.713 62.7692C242.132 63.1003 243.601 63.25 245.099 63.25V53.25ZM242.862 53.0037C242.088 52.8436 241.626 52.6912 241.39 52.5918L237.509 61.8082C238.539 62.2421 239.677 62.5564 240.836 62.7963L242.862 53.0037ZM244.334 58.2673L245.634 52.3173L235.864 50.1827L234.564 56.1327L244.334 58.2673ZM239.107 55.9725C240.058 56.3034 241.024 56.573 241.977 56.732L243.621 46.868C243.375 46.827 242.974 46.73 242.392 46.5275L239.107 55.9725ZM241.977 56.732C242.873 56.8813 243.783 56.95 244.699 56.95V46.95C244.282 46.95 243.925 46.9187 243.621 46.868L241.977 56.732ZM244.699 56.95C246.949 56.95 249.451 56.3084 251.366 54.3024L244.132 47.3976C244.234 47.2911 244.348 47.1976 244.467 47.1214C244.585 47.0458 244.689 46.9989 244.765 46.9715C244.911 46.9189 244.918 46.95 244.699 46.95V56.95ZM251.202 54.4668C252.606 53.1263 253.571 51.4566 254.25 49.7358L244.948 46.0642C244.628 46.8767 244.359 47.1737 244.297 47.2332L251.202 54.4668ZM254.053 45.6284C252.426 42.4364 250.781 38.8292 249.123 34.7981L239.875 38.6019C241.617 42.8375 243.373 46.6969 245.145 50.1716L254.053 45.6284ZM249.129 34.8112C247.506 30.8339 245.961 26.3361 244.501 21.3059L234.897 24.094C236.437 29.3973 238.092 34.2328 239.87 38.5888L249.129 34.8112ZM239.699 27.7H247.599V17.7H239.699V27.7ZM242.756 23.9419C243.101 25.2878 243.495 26.7443 243.938 28.3098L253.561 25.5902C253.137 24.0891 252.764 22.7122 252.443 21.4581L242.756 23.9419ZM243.975 28.4353C244.445 29.9475 244.932 31.4925 245.436 33.0702L254.963 30.0298C254.466 28.4742 253.986 26.9525 253.524 25.4647L243.975 28.4353ZM245.446 33.1001C245.952 34.6537 246.459 36.1748 246.967 37.6634L256.432 34.4366C255.939 32.9918 255.446 31.5129 254.953 29.9999L245.446 33.1001ZM247 37.7587C247.544 39.2531 248.057 40.6216 248.539 41.8622L257.859 38.2378C257.408 37.0784 256.921 35.7803 256.398 34.3413L247 37.7587ZM257.902 41.7482C258.361 40.4771 258.832 39.0818 259.314 37.566L249.785 34.534C249.334 35.9515 248.904 37.2229 248.496 38.3518L257.902 41.7482ZM259.314 37.566C259.798 36.0458 260.263 34.4936 260.711 32.9098L251.088 30.1902C250.669 31.673 250.234 33.1209 249.785 34.534L259.314 37.566ZM260.691 32.9774C261.171 31.367 261.617 29.7872 262.03 28.2383L252.368 25.6617C251.981 27.1128 251.561 28.5997 251.107 30.1226L260.691 32.9774ZM262.011 28.3098C262.453 26.7443 262.847 25.2878 263.193 23.9419L253.506 21.4581C253.184 22.7122 252.812 24.0891 252.388 25.5902L262.011 28.3098ZM258.349 27.7H266.049V17.7H258.349V27.7ZM287.02 33.9L291.855 32.6275L287.02 14.2531L282.184 32.6275L287.02 33.9ZM284.87 41.45L280.089 39.9841L280.08 40.0133L280.072 40.0426L284.87 41.45ZM282.52 49V54H286.138L287.269 50.5624L282.52 49ZM276.72 49L272.124 50.9696L273.423 54H276.72V49ZM274.77 44L279.471 42.2978L274.77 44ZM272.57 37.7L267.806 39.2189L267.819 39.2606L267.833 39.302L272.57 37.7ZM270.27 30.45L265.479 31.881L265.49 31.9184L265.502 31.9557L270.27 30.45ZM268.02 22.7V17.7H261.414L263.207 24.0573L268.02 22.7ZM275.87 22.7L280.75 21.6153L279.88 17.7H275.87V22.7ZM276.72 26.65L271.826 27.6743L271.84 27.7414L271.855 27.8081L276.72 26.65ZM277.72 31L272.839 32.0847L272.85 32.1361L272.863 32.1873L277.72 31ZM278.82 35.55L273.957 36.7129L273.972 36.7758L273.988 36.8383L278.82 35.55ZM280.02 39.9L275.212 41.2736L279.939 57.8186L284.815 41.3167L280.02 39.9ZM281.27 35.4L276.458 34.0402L276.444 34.0889L276.431 34.1379L281.27 35.4ZM282.47 30.9L277.638 29.6117L277.628 29.6494L277.619 29.6873L282.47 30.9ZM283.57 26.6L278.733 25.3332L278.722 25.3741L278.712 25.4152L283.57 26.6ZM284.52 22.7V17.7H280.509L279.639 21.6153L284.52 22.7ZM289.92 22.7L294.8 21.6153L293.93 17.7H289.92V22.7ZM290.82 26.6L285.956 27.7581L285.959 27.7714L285.962 27.7848L290.82 26.6ZM291.87 30.9L287.013 32.0873L287.016 32.1L287.019 32.1127L291.87 30.9ZM293.02 35.4L297.858 34.1379V34.1379L293.02 35.4ZM294.27 39.9L289.474 41.3167L294.35 57.8186L299.077 41.2736L294.27 39.9ZM295.47 35.55L300.301 36.8383L300.304 36.8252L300.308 36.8121L295.47 35.55ZM296.57 31L291.713 29.8127L291.7 29.8639L291.689 29.9153L296.57 31ZM297.57 26.65L292.699 25.5174L292.69 25.5598L292.681 25.6024L297.57 26.65ZM298.47 22.7V17.7H294.459L293.589 21.6153L298.47 22.7ZM306.22 22.7L311.032 24.0573L312.825 17.7H306.22V22.7ZM303.92 30.45L299.146 28.9622L299.14 28.9819L299.134 29.0017L303.92 30.45ZM301.62 37.7L296.876 36.1189L296.869 36.1398L296.862 36.1609L301.62 37.7ZM299.42 44L294.745 42.2267L294.731 42.2622L294.718 42.2978L299.42 44ZM297.47 49V54H300.767L302.065 50.9696L297.47 49ZM291.67 49L286.92 50.5624L288.051 54H291.67V49ZM289.22 41.45L284.457 42.9739V42.9739L289.22 41.45ZM282.184 32.6275C281.535 35.0961 280.836 37.5483 280.089 39.9841L289.65 42.916C290.436 40.3517 291.171 37.7705 291.855 35.1725L282.184 32.6275ZM280.072 40.0426C279.354 42.4895 278.587 44.9545 277.77 47.4376L287.269 50.5624C288.119 47.9788 288.918 45.4105 289.667 42.8574L280.072 40.0426ZM282.52 44H276.72V54H282.52V44ZM281.315 47.0304C280.763 45.7428 280.149 44.1699 279.471 42.2978L270.068 45.7022C270.79 47.6968 271.476 49.4572 272.124 50.9696L281.315 47.0304ZM279.471 42.2978C278.785 40.4026 278.063 38.3364 277.306 36.098L267.833 39.302C268.609 41.5969 269.354 43.7308 270.068 45.7022L279.471 42.2978ZM277.333 36.1811C276.601 33.8859 275.836 31.4737 275.037 28.9443L265.502 31.9557C266.303 34.493 267.071 36.9141 267.806 39.2189L277.333 36.1811ZM275.06 29.019C274.301 26.477 273.558 23.9183 272.832 21.3427L263.207 24.0573C263.948 26.6817 264.705 29.2896 265.479 31.881L275.06 29.019ZM268.02 27.7H275.87V17.7H268.02V27.7ZM270.989 23.7847C271.25 24.9612 271.529 26.2575 271.826 27.6743L281.613 25.6257C281.31 24.1759 281.022 22.8388 280.75 21.6153L270.989 23.7847ZM271.855 27.8081C272.183 29.1821 272.51 30.6075 272.839 32.0847L282.6 29.9153C282.262 28.3925 281.923 26.9179 281.584 25.4919L271.855 27.8081ZM272.863 32.1873C273.227 33.679 273.592 35.1875 273.957 36.7129L283.682 34.3871C283.314 32.8458 282.945 31.321 282.577 29.8127L272.863 32.1873ZM273.988 36.8383C274.395 38.365 274.803 39.8435 275.212 41.2736L284.827 38.5264C284.436 37.1565 284.044 35.735 283.651 34.2617L273.988 36.8383ZM284.815 41.3167C285.264 39.797 285.695 38.2454 286.108 36.6621L276.431 34.1379C276.044 35.6213 275.642 37.0697 275.224 38.4833L284.815 41.3167ZM286.081 36.7598C286.527 35.1802 286.941 33.6311 287.32 32.1127L277.619 29.6873C277.265 31.1022 276.878 32.5531 276.458 34.0402L286.081 36.7598ZM287.301 32.1883C287.709 30.6574 288.085 29.1894 288.427 27.7848L278.712 25.4152C278.388 26.744 278.03 28.1426 277.638 29.6117L287.301 32.1883ZM288.406 27.8668C288.786 26.4166 289.118 25.0552 289.4 23.7846L279.639 21.6153C279.388 22.7448 279.086 23.9834 278.733 25.3332L288.406 27.8668ZM284.52 27.7H289.92V17.7H284.52V27.7ZM285.039 23.7847C285.312 25.0129 285.617 26.3377 285.956 27.7581L295.684 25.4419C295.355 24.0623 295.061 22.7871 294.8 21.6153L285.039 23.7847ZM285.962 27.7848C286.295 29.1523 286.646 30.5865 287.013 32.0873L296.727 29.7127C296.36 28.2135 296.01 26.781 295.677 25.4152L285.962 27.7848ZM287.019 32.1127C287.39 33.5966 287.777 35.1131 288.181 36.6621L297.858 34.1379C297.462 32.6202 297.083 31.1367 296.72 29.6873L287.019 32.1127ZM288.181 36.6621C288.594 38.2454 289.025 39.7969 289.474 41.3167L299.065 38.4833C298.647 37.0697 298.245 35.6213 297.858 34.1379L288.181 36.6621ZM299.077 41.2736C299.486 39.8435 299.894 38.365 300.301 36.8383L290.638 34.2617C290.245 35.735 289.853 37.1565 289.462 38.5264L299.077 41.2736ZM300.308 36.8121C300.723 35.2217 301.104 33.6459 301.45 32.0847L291.689 29.9153C291.369 31.3541 291.017 32.8116 290.631 34.2879L300.308 36.8121ZM301.427 32.1873C301.804 30.6444 302.148 29.1478 302.459 27.6976L292.681 25.6024C292.391 26.9522 292.069 28.3555 291.713 29.8127L301.427 32.1873ZM302.44 27.7826C302.776 26.3363 303.08 25.0034 303.35 23.7847L293.589 21.6153C293.326 22.7966 293.03 24.0971 292.699 25.5174L302.44 27.7826ZM298.47 27.7H306.22V17.7H298.47V27.7ZM301.407 21.3427C300.686 23.8992 299.932 26.439 299.146 28.9622L308.693 31.9378C309.507 29.3276 310.286 26.7008 311.032 24.0573L301.407 21.3427ZM299.134 29.0017C298.379 31.4946 297.627 33.8667 296.876 36.1189L306.363 39.2811C307.146 36.9333 307.926 34.4721 308.705 31.8983L299.134 29.0017ZM296.862 36.1609C296.151 38.3604 295.445 40.3813 294.745 42.2267L304.095 45.7733C304.861 43.752 305.622 41.573 306.377 39.2391L296.862 36.1609ZM294.718 42.2978C294.04 44.1699 293.426 45.7428 292.874 47.0304L302.065 50.9696C302.713 49.4572 303.399 47.6968 304.121 45.7022L294.718 42.2978ZM297.47 44H291.67V54H297.47V44ZM296.419 47.4376C295.59 44.9169 294.777 42.4131 293.982 39.9261L284.457 42.9739C285.262 45.4869 286.082 48.0164 286.92 50.5624L296.419 47.4376ZM293.982 39.9261C293.208 37.5091 292.499 35.0763 291.855 32.6275L282.184 35.1725C282.873 37.7904 283.631 40.3909 284.457 42.9739L293.982 39.9261ZM326.079 29.3L324.866 34.1507L329.937 35.4185L330.978 30.2959L326.079 29.3ZM323.729 28.8L322.644 33.6809L322.731 33.7002L322.818 33.7164L323.729 28.8ZM319.129 28.65L319.652 33.6225L319.761 33.611L319.87 33.5947L319.129 28.65ZM317.679 28.9L316.242 24.1109L312.679 25.1799V28.9H317.679ZM317.679 49V54H322.679V49H317.679ZM310.229 49H305.229V54H310.229V49ZM310.229 24.1L308.577 19.3807L305.229 20.5526V24.1H310.229ZM314.929 22.8L316.013 27.6809L316.046 27.6736L316.079 27.6659L314.929 22.8ZM322.479 22.25L321.894 27.2158L322.039 27.2328L322.185 27.2414L322.479 22.25ZM324.179 22.45L323.31 27.3739L323.451 27.3989L323.594 27.4158L324.179 22.45ZM325.879 22.75L324.733 27.6171L324.871 27.6494L325.01 27.6739L325.879 22.75ZM327.329 23.15L332.228 24.1459L333.047 20.1162L329.252 18.5346L327.329 23.15ZM327.291 24.4493C326.498 24.251 325.609 24.0633 324.639 23.8836L322.818 33.7164C323.648 33.87 324.326 34.0157 324.866 34.1507L327.291 24.4493ZM324.813 23.9191C323.517 23.6311 322.184 23.5 320.829 23.5V33.5C321.54 33.5 322.14 33.5689 322.644 33.6809L324.813 23.9191ZM320.829 23.5C320.031 23.5 319.201 23.5832 318.387 23.7053L319.87 33.5947C320.389 33.5168 320.693 33.5 320.829 33.5V23.5ZM318.605 23.6775C317.872 23.7547 317.023 23.8764 316.242 24.1109L319.115 33.6891C319.029 33.715 319.024 33.7099 319.141 33.6898C319.248 33.6713 319.414 33.6475 319.652 33.6225L318.605 23.6775ZM312.679 28.9V49H322.679V28.9H312.679ZM317.679 44H310.229V54H317.679V44ZM315.229 49V24.1H305.229V49H315.229ZM311.88 28.8193C312.982 28.4337 314.351 28.0503 316.013 27.6809L313.844 17.9191C311.906 18.3497 310.142 18.8329 308.577 19.3807L311.88 28.8193ZM316.079 27.6659C317.473 27.3363 319.113 27.15 321.029 27.15V17.15C318.477 17.15 316.051 17.397 313.778 17.9341L316.079 27.6659ZM321.029 27.15C321.171 27.15 321.447 27.1632 321.894 27.2158L323.063 17.2842C322.376 17.2035 321.687 17.15 321.029 17.15V27.15ZM322.185 27.2414C322.556 27.2632 322.931 27.307 323.31 27.3739L325.047 17.5261C324.293 17.393 323.534 17.3035 322.772 17.2586L322.185 27.2414ZM323.594 27.4158C323.968 27.4598 324.348 27.5264 324.733 27.6171L327.024 17.8829C326.276 17.7069 325.522 17.5736 324.763 17.4842L323.594 27.4158ZM325.01 27.6739C325.16 27.7004 325.267 27.7258 325.336 27.745C325.407 27.7644 325.426 27.7739 325.405 27.7654L329.252 18.5346C328.423 18.1894 327.566 17.9705 326.747 17.8261L325.01 27.6739ZM322.429 22.1541L321.179 28.3041L330.978 30.2959L332.228 24.1459L322.429 22.1541ZM338.772 49V54H343.772V49H338.772ZM331.322 49H326.322V54H331.322V49ZM331.322 22.7V17.7H326.322V22.7H331.322ZM338.772 22.7H343.772V17.7H338.772V22.7ZM338.122 18.35L341.435 22.095L341.444 22.087L338.122 18.35ZM331.872 18.35L328.481 22.024L328.554 22.0916L328.63 22.1562L331.872 18.35ZM331.872 11.9L335.185 15.645L335.194 15.637L331.872 11.9ZM338.122 11.9L334.731 15.574L334.804 15.6416L334.88 15.7062L338.122 11.9ZM338.772 44H331.322V54H338.772V44ZM336.322 49V22.7H326.322V49H336.322ZM331.322 27.7H338.772V17.7H331.322V27.7ZM333.772 22.7V49H343.772V22.7H333.772ZM334.472 15.1C334.472 15.2323 334.452 15.1775 334.517 15.0195C334.549 14.9431 334.593 14.8618 334.649 14.7839C334.705 14.7063 334.759 14.6496 334.8 14.613L341.444 22.087C343.562 20.2048 344.472 17.6809 344.472 15.1H334.472ZM334.809 14.605C334.808 14.6061 334.822 14.5937 334.852 14.5756C334.882 14.5573 334.919 14.5393 334.958 14.5247C334.998 14.5101 335.028 14.5031 335.045 14.5002C335.061 14.4974 335.055 14.5 335.022 14.5V24.5C337.393 24.5 339.618 23.7026 341.435 22.095L334.809 14.605ZM335.022 14.5C334.989 14.5 334.98 14.4974 334.99 14.4991C335.001 14.5009 335.022 14.5057 335.049 14.5157C335.077 14.5258 335.1 14.5371 335.115 14.5463C335.13 14.5552 335.13 14.5569 335.115 14.5438L328.63 22.1562C330.449 23.706 332.654 24.5 335.022 24.5V14.5ZM335.264 14.676C335.31 14.7186 335.365 14.779 335.418 14.8565C335.472 14.9342 335.512 15.0118 335.54 15.0805C335.596 15.2215 335.572 15.2544 335.572 15.1H325.572C325.572 17.6194 326.423 20.1245 328.481 22.024L335.264 14.676ZM335.572 15.1C335.572 14.9435 335.597 14.9919 335.53 15.1569C335.496 15.2384 335.448 15.3306 335.382 15.4234C335.316 15.5161 335.247 15.5902 335.185 15.645L328.559 8.15501C326.424 10.0443 325.572 12.5857 325.572 15.1H335.572ZM335.194 15.637C335.212 15.621 335.213 15.6227 335.196 15.6333C335.178 15.6442 335.15 15.6589 335.115 15.6724C335.079 15.686 335.048 15.6938 335.026 15.6978C335.004 15.7017 335.001 15.7 335.022 15.7V5.7C332.593 5.7 330.362 6.55251 328.55 8.16295L335.194 15.637ZM335.022 15.7C335.044 15.7 335.038 15.7017 335.01 15.6967C334.981 15.6915 334.94 15.6812 334.892 15.6628C334.845 15.6444 334.803 15.6228 334.771 15.6024C334.739 15.5824 334.726 15.5698 334.731 15.574L341.514 8.22598C339.706 6.5571 337.455 5.7 335.022 5.7V15.7ZM334.88 15.7062C334.823 15.6581 334.755 15.5883 334.687 15.496C334.618 15.4034 334.566 15.3077 334.528 15.2185C334.451 15.0362 334.472 14.9656 334.472 15.1H344.472C344.472 12.5224 343.56 9.96367 341.365 8.09378L334.88 15.7062ZM345.525 16.15L344.73 11.2136L340.525 11.8909V16.15H345.525ZM352.975 14.95H357.975V9.08018L352.18 10.0136L352.975 14.95ZM352.975 22.7H347.975V27.7H352.975V22.7ZM361.925 22.7H366.925V17.7H361.925V22.7ZM361.925 28.9V33.9H366.925V28.9H361.925ZM352.975 28.9V23.9H347.975V28.9H352.975ZM353.775 41.9L349.434 44.3807L349.467 44.4382L349.501 44.4949L353.775 41.9ZM359.575 43.1L360.365 48.0372L360.443 48.0248L360.52 48.01L359.575 43.1ZM361.925 42.45L366.845 41.5593L365.773 35.6338L360.145 37.7776L361.925 42.45ZM362.975 48.25L364.862 52.8805L368.618 51.3502L367.895 47.3593L362.975 48.25ZM359.975 49.2L358.797 44.3407L359.975 49.2ZM350.875 48.8L348.92 53.4017L348.969 53.4225L349.018 53.4424L350.875 48.8ZM347.675 46.5L343.771 49.6235L343.797 49.6559L343.823 49.6878L347.675 46.5ZM345.975 42.9L341.086 43.9476L341.098 44.003L341.111 44.0581L345.975 42.9ZM346.321 21.0864L353.771 19.8864L352.18 10.0136L344.73 11.2136L346.321 21.0864ZM347.975 14.95V22.7H357.975V14.95H347.975ZM352.975 27.7H361.925V17.7H352.975V27.7ZM356.925 22.7V28.9H366.925V22.7H356.925ZM361.925 23.9H352.975V33.9H361.925V23.9ZM347.975 28.9V38.15H357.975V28.9H347.975ZM347.975 38.15C347.975 40.2146 348.316 42.4237 349.434 44.3807L358.117 39.4193C358.149 39.476 358.111 39.4322 358.065 39.2193C358.019 39.0038 357.975 38.6581 357.975 38.15H347.975ZM349.501 44.4949C351.389 47.604 354.695 48.3 357.125 48.3V38.3C356.721 38.3 356.73 38.238 356.966 38.3367C357.098 38.3918 357.291 38.4936 357.501 38.6683C357.715 38.8463 357.903 39.064 358.049 39.3051L349.501 44.4949ZM357.125 48.3C358.204 48.3 359.285 48.2101 360.365 48.0372L358.785 38.1628C358.199 38.2566 357.647 38.3 357.125 38.3V48.3ZM360.52 48.01C361.622 47.798 362.691 47.5087 363.705 47.1224L360.145 37.7776C359.759 37.9246 359.262 38.0687 358.631 38.19L360.52 48.01ZM357.005 43.3407L358.055 49.1407L367.895 47.3593L366.845 41.5593L357.005 43.3407ZM361.089 43.6195C360.453 43.8787 359.694 44.1233 358.797 44.3407L361.153 54.0592C362.457 53.7433 363.698 53.3547 364.862 52.8805L361.089 43.6195ZM358.797 44.3407C358.205 44.4843 357.278 44.6 355.925 44.6V54.6C357.773 54.6 359.546 54.449 361.153 54.0592L358.797 44.3407ZM355.925 44.6C354.284 44.6 353.284 44.3783 352.732 44.1576L349.018 53.4424C351.133 54.2883 353.5 54.6 355.925 54.6V44.6ZM352.831 44.1983C352.12 43.896 351.744 43.5737 351.527 43.3122L343.823 49.6878C345.207 51.3597 346.965 52.5707 348.92 53.4017L352.831 44.1983ZM351.58 43.3765C351.295 43.0205 351.023 42.5133 350.839 41.7419L341.111 44.0581C341.594 46.0867 342.456 47.9795 343.771 49.6235L351.58 43.3765ZM350.864 41.8524C350.65 40.8536 350.525 39.6613 350.525 38.25H340.525C340.525 40.2387 340.7 42.1464 341.086 43.9476L350.864 41.8524ZM350.525 38.25V16.15H340.525V38.25H350.525ZM375.442 49V54H380.442V49H375.442ZM367.992 49H362.992V54H367.992V49ZM367.992 22.7V17.7H362.992V22.7H367.992ZM375.442 22.7H380.442V17.7H375.442V22.7ZM374.792 18.35L378.105 22.095L378.114 22.087L374.792 18.35ZM368.542 18.35L365.151 22.024L365.224 22.0916L365.3 22.1562L368.542 18.35ZM368.542 11.9L371.855 15.645L371.864 15.637L368.542 11.9ZM374.792 11.9L371.401 15.574L371.474 15.6416L371.55 15.7062L374.792 11.9ZM375.442 44H367.992V54H375.442V44ZM372.992 49V22.7H362.992V49H372.992ZM367.992 27.7H375.442V17.7H367.992V27.7ZM370.442 22.7V49H380.442V22.7H370.442ZM371.142 15.1C371.142 15.2323 371.122 15.1775 371.187 15.0195C371.219 14.9431 371.263 14.8618 371.319 14.7839C371.375 14.7063 371.429 14.6496 371.47 14.613L378.114 22.087C380.232 20.2048 381.142 17.6809 381.142 15.1H371.142ZM371.479 14.605C371.478 14.6061 371.492 14.5937 371.522 14.5756C371.552 14.5573 371.589 14.5393 371.628 14.5247C371.667 14.5101 371.698 14.5031 371.715 14.5002C371.731 14.4974 371.725 14.5 371.692 14.5V24.5C374.063 24.5 376.288 23.7026 378.105 22.095L371.479 14.605ZM371.692 14.5C371.659 14.5 371.65 14.4974 371.66 14.4991C371.671 14.5009 371.692 14.5057 371.719 14.5157C371.747 14.5258 371.77 14.5371 371.785 14.5463C371.8 14.5552 371.8 14.5569 371.785 14.5438L365.3 22.1562C367.119 23.706 369.323 24.5 371.692 24.5V14.5ZM371.934 14.676C371.98 14.7186 372.035 14.779 372.088 14.8565C372.142 14.9342 372.182 15.0118 372.21 15.0805C372.266 15.2215 372.242 15.2544 372.242 15.1H362.242C362.242 17.6194 363.093 20.1245 365.151 22.024L371.934 14.676ZM372.242 15.1C372.242 14.9435 372.267 14.9919 372.2 15.1569C372.166 15.2384 372.118 15.3306 372.052 15.4234C371.986 15.5161 371.917 15.5902 371.855 15.645L365.229 8.15501C363.094 10.0443 362.242 12.5857 362.242 15.1H372.242ZM371.864 15.637C371.882 15.621 371.883 15.6227 371.866 15.6333C371.848 15.6442 371.82 15.6589 371.785 15.6724C371.749 15.686 371.718 15.6938 371.695 15.6978C371.674 15.7017 371.671 15.7 371.692 15.7V5.7C369.263 5.7 367.032 6.55251 365.22 8.16295L371.864 15.637ZM371.692 15.7C371.714 15.7 371.707 15.7017 371.679 15.6967C371.651 15.6915 371.61 15.6812 371.562 15.6628C371.515 15.6444 371.473 15.6228 371.441 15.6024C371.409 15.5824 371.396 15.5698 371.401 15.574L378.184 8.22598C376.376 6.5571 374.125 5.7 371.692 5.7V15.7ZM371.55 15.7062C371.493 15.6581 371.425 15.5883 371.357 15.496C371.288 15.4034 371.236 15.3077 371.198 15.2185C371.121 15.0362 371.142 14.9656 371.142 15.1H381.142C381.142 12.5224 380.23 9.96367 378.035 8.09378L371.55 15.7062ZM382.445 23.6L381.055 18.7972L377.445 19.8421V23.6H382.445ZM387.345 22.6L388.087 27.5447L388.127 27.5387L388.167 27.532L387.345 22.6ZM399.195 23L397.302 27.6277L397.365 27.6534L397.428 27.6774L399.195 23ZM402.745 25.45L398.865 28.603V28.603L402.745 25.45ZM404.595 29.25L399.745 30.4627V30.4627L404.595 29.25ZM405.145 49V54H410.145V49H405.145ZM397.695 49H392.695V54H397.695V49ZM396.745 29.95L392.521 32.6253L392.521 32.6253L396.745 29.95ZM391.495 28.55L391.773 33.5423L391.91 33.5346L392.047 33.5194L391.495 28.55ZM389.895 28.7L389.188 23.7503L384.895 24.3635V28.7H389.895ZM389.895 49V54H394.895V49H389.895ZM382.445 49H377.445V54H382.445V49ZM383.836 28.4028C384.809 28.121 386.204 27.8272 388.087 27.5447L386.604 17.6553C384.487 17.9728 382.615 18.3456 381.055 18.7972L383.836 28.4028ZM388.167 27.532C389.874 27.2475 391.698 27.1 393.645 27.1V17.1C391.193 17.1 388.817 17.2858 386.523 17.668L388.167 27.532ZM393.645 27.1C395.476 27.1 396.629 27.3522 397.302 27.6277L401.088 18.3723C398.829 17.4478 396.282 17.1 393.645 17.1V27.1ZM397.428 27.6774C398.241 27.9843 398.642 28.3293 398.865 28.603L406.626 22.297C405.115 20.4374 403.15 19.1491 400.962 18.3226L397.428 27.6774ZM398.865 28.603C399.225 29.0469 399.537 29.6342 399.745 30.4627L409.446 28.0373C408.92 25.9325 407.999 23.9864 406.626 22.297L398.865 28.603ZM399.745 30.4627C399.995 31.466 400.145 32.6837 400.145 34.15H410.145C410.145 32.0163 409.929 29.9674 409.446 28.0373L399.745 30.4627ZM400.145 34.15V49H410.145V34.15H400.145ZM405.145 44H397.695V54H405.145V44ZM402.695 49V35.05H392.695V49H402.695ZM402.695 35.05C402.695 32.4979 402.412 29.5522 400.969 27.2747L392.521 32.6253C392.379 32.4007 392.451 32.4028 392.542 32.8906C392.628 33.348 392.695 34.0486 392.695 35.05H402.695ZM400.969 27.2747C399.039 24.2265 395.783 23.45 393.195 23.45V33.45C393.613 33.45 393.635 33.5147 393.437 33.4307C393.326 33.384 393.163 33.2971 392.984 33.1493C392.802 32.9991 392.644 32.8189 392.521 32.6253L400.969 27.2747ZM393.195 23.45C392.455 23.45 391.703 23.4961 390.943 23.5806L392.047 33.5194C392.488 33.4705 392.869 33.45 393.195 33.45V23.45ZM391.218 23.5577C390.511 23.597 389.83 23.6586 389.188 23.7503L390.602 33.6497C390.894 33.6081 391.28 33.5697 391.773 33.5423L391.218 23.5577ZM384.895 28.7V49H394.895V28.7H384.895ZM389.895 44H382.445V54H389.895V44ZM387.445 49V23.6H377.445V49H387.445ZM425.439 40.95L424.002 36.1609V36.1609L425.439 40.95ZM427.139 40.25L429.619 44.5912L432.139 43.1516V40.25H427.139ZM427.139 28.35H432.139V24.1771L428.033 23.4307L427.139 28.35ZM425.839 28.2L425.178 33.1561L425.341 33.1779L425.506 33.1889L425.839 28.2ZM419.689 30.05L415.676 27.0665V27.0665L419.689 30.05ZM431.289 55.25L427.865 51.6058L427.837 51.6325L427.809 51.6597L431.289 55.25ZM416.389 57.95L417.31 53.0356L417.26 53.0263L417.211 53.018L416.389 57.95ZM411.939 56.85L407.043 55.8318L406.144 60.1549L410.323 61.5817L411.939 56.85ZM413.239 50.6L415.096 45.9576L409.558 43.7426L408.343 49.5818L413.239 50.6ZM416.889 51.7L415.859 56.5928L415.871 56.5954L415.884 56.598L416.889 51.7ZM425.789 50.7L422.189 47.2293L422.157 47.2632L422.125 47.2977L425.789 50.7ZM427.139 46.15H432.139V38.3582L425.055 41.6047L427.139 46.15ZM424.639 47L425.619 51.9029L425.691 51.8885L425.763 51.872L424.639 47ZM413.539 44.05L409.808 47.3789L409.821 47.3933L409.834 47.4076L413.539 44.05ZM411.539 29.75L416.208 31.5382L416.214 31.5219L416.22 31.5056L411.539 29.75ZM414.139 25.65L410.655 22.0636L410.629 22.0888L410.603 22.1145L414.139 25.65ZM418.389 23.05L420.082 27.7544L420.124 27.7395L420.165 27.7239L418.389 23.05ZM426.789 22.25L426.256 27.2215L426.35 27.2316L426.445 27.2382L426.789 22.25ZM432.289 23.05L431.122 27.9119L431.233 27.9385L431.344 27.96L432.289 23.05ZM434.589 23.6H439.589V19.8798L436.025 18.8109L434.589 23.6ZM413.239 35C413.239 37.6263 413.748 40.5229 415.612 42.8299C417.641 45.3407 420.519 46.25 423.289 46.25V36.25C422.954 36.25 422.89 36.1975 422.986 36.2372C423.113 36.2897 423.274 36.4011 423.39 36.5451C423.489 36.6668 423.448 36.6799 423.382 36.434C423.313 36.178 423.239 35.7214 423.239 35H413.239ZM423.289 46.25C424.493 46.25 425.698 46.0924 426.875 45.7391L424.002 36.1609C423.846 36.2076 423.618 36.25 423.289 36.25V46.25ZM426.875 45.7391C427.805 45.4601 428.743 45.0921 429.619 44.5912L424.658 35.9088C424.601 35.9412 424.405 36.0399 424.002 36.1609L426.875 45.7391ZM432.139 40.25V28.35H422.139V40.25H432.139ZM428.033 23.4307C427.43 23.321 426.8 23.253 426.171 23.2111L425.506 33.1889C425.877 33.2137 426.114 33.2457 426.244 33.2693L428.033 23.4307ZM426.499 23.2439C425.724 23.1404 424.911 23.1 424.089 23.1V33.1C424.6 33.1 424.954 33.1262 425.178 33.1561L426.499 23.2439ZM424.089 23.1C420.92 23.1 417.792 24.2213 415.676 27.0665L423.701 33.0335C423.698 33.0377 423.676 33.0651 423.634 33.0986C423.592 33.1323 423.556 33.1515 423.54 33.1587C423.508 33.1727 423.649 33.1 424.089 33.1V23.1ZM415.676 27.0665C413.93 29.4144 413.239 32.1819 413.239 35H423.239C423.239 33.8181 423.514 33.2856 423.701 33.0335L415.676 27.0665ZM429.589 45.7C429.589 49.2164 428.694 50.827 427.865 51.6058L434.712 58.8942C438.283 55.5397 439.589 50.7836 439.589 45.7H429.589ZM427.809 51.6597C426.957 52.4848 425.11 53.4 421.189 53.4V63.4C426.401 63.4 431.287 62.2152 434.769 58.8403L427.809 51.6597ZM421.189 53.4C419.903 53.4 418.612 53.2797 417.31 53.0356L415.467 62.8644C417.366 63.2203 419.274 63.4 421.189 63.4V53.4ZM417.211 53.018C415.848 52.7909 414.633 52.4866 413.554 52.1183L410.323 61.5817C411.978 62.1467 413.729 62.5758 415.567 62.882L417.211 53.018ZM416.834 57.8682L418.134 51.6182L408.343 49.5818L407.043 55.8318L416.834 57.8682ZM411.382 55.2424C412.824 55.8194 414.318 56.2684 415.859 56.5928L417.919 46.8073C416.926 46.5982 415.986 46.3139 415.096 45.9576L411.382 55.2424ZM415.884 56.598C417.58 56.9459 419.392 57.1 421.289 57.1V47.1C419.919 47.1 418.797 46.9874 417.893 46.802L415.884 56.598ZM421.289 57.1C423.917 57.1 427.167 56.564 429.453 54.1023L422.125 47.2977C422.409 46.9914 422.638 46.9417 422.528 46.9757C422.397 47.0167 422.019 47.1 421.289 47.1V57.1ZM429.388 54.1707C431.307 52.1809 432.139 49.6772 432.139 47.1H422.139C422.139 47.2111 422.13 47.2816 422.124 47.318C422.118 47.3535 422.114 47.3595 422.12 47.3444C422.125 47.3284 422.137 47.3036 422.154 47.2763C422.171 47.2491 422.186 47.2331 422.189 47.2293L429.388 54.1707ZM432.139 47.1V46.15H422.139V47.1H432.139ZM425.055 41.6047C424.566 41.8288 424.055 42.0034 423.514 42.128L425.763 51.872C426.956 51.5966 428.111 51.2046 429.222 50.6953L425.055 41.6047ZM423.658 42.0971C423.198 42.1891 422.615 42.25 421.889 42.25V52.25C423.162 52.25 424.412 52.1443 425.619 51.9029L423.658 42.0971ZM421.889 42.25C419.271 42.25 417.993 41.5188 417.244 40.6924L409.834 47.4076C412.951 50.8478 417.239 52.25 421.889 52.25V42.25ZM417.269 40.7211C416.392 39.7383 415.639 38.0526 415.639 35H405.639C405.639 39.6808 406.818 44.0284 409.808 47.3789L417.269 40.7211ZM415.639 35C415.639 33.586 415.857 32.4541 416.208 31.5382L406.869 27.9618C406.02 30.1793 405.639 32.5473 405.639 35H415.639ZM416.22 31.5056C416.587 30.5289 417.078 29.7813 417.674 29.1855L410.603 22.1145C408.932 23.7854 407.691 25.7711 406.857 27.9944L416.22 31.5056ZM417.623 29.2364C418.235 28.6417 419.025 28.1351 420.082 27.7544L416.695 18.3456C414.419 19.1649 412.376 20.3916 410.655 22.0636L417.623 29.2364ZM420.165 27.7239C421.173 27.3408 422.44 27.1 424.039 27.1V17.1C421.438 17.1 418.938 17.4925 416.613 18.3761L420.165 27.7239ZM424.039 27.1C424.753 27.1 425.492 27.1397 426.256 27.2215L427.321 17.2785C426.219 17.1603 425.124 17.1 424.039 17.1V27.1ZM426.445 27.2382C427.293 27.2967 428.122 27.3841 428.932 27.4997L430.346 17.6003C429.289 17.4492 428.217 17.3367 427.133 17.2618L426.445 27.2382ZM428.932 27.4997C429.725 27.6132 430.454 27.7518 431.122 27.9119L433.456 18.1881C432.456 17.9482 431.419 17.7535 430.346 17.6003L428.932 27.4997ZM431.344 27.96C432.087 28.1028 432.683 28.2486 433.152 28.3891L436.025 18.8109C435.161 18.5514 434.224 18.3306 433.233 18.14L431.344 27.96ZM429.589 23.6V45.7H439.589V23.6H429.589ZM448.926 30.85L453.908 31.277V31.277L448.926 30.85ZM448.126 37.95V42.95H452.48L453.079 38.6378L448.126 37.95ZM442.426 37.95L437.474 38.6378L438.073 42.95H442.426V37.95ZM441.576 30.85L436.594 31.277L436.597 31.3123L436.601 31.3475L441.576 30.85ZM441.276 14.35V9.35H436.276V14.35H441.276ZM449.226 14.35H454.226V9.35H449.226V14.35ZM448.426 48.45L445.238 44.598L445.205 44.6256L445.172 44.6537L448.426 48.45ZM441.976 48.45L438.722 52.2463L438.755 52.2744L438.788 52.302L441.976 48.45ZM441.976 41.65L438.788 37.798L438.755 37.8256L438.722 37.8537L441.976 41.65ZM448.426 41.65L445.172 45.4463L445.205 45.4744L445.238 45.502L448.426 41.65ZM444.226 23.3C444.226 25.8785 444.131 28.2512 443.944 30.423L453.908 31.277C454.122 28.7822 454.226 26.1215 454.226 23.3H444.226ZM443.944 30.423C443.752 32.6662 443.495 34.9459 443.174 37.2622L453.079 38.6378C453.424 36.1541 453.7 33.7005 453.908 31.277L443.944 30.423ZM448.126 32.95H442.426V42.95H448.126V32.95ZM447.379 37.2622C447.054 34.9234 446.778 32.6202 446.551 30.3525L436.601 31.3475C436.841 33.7465 437.132 36.1766 437.474 38.6378L447.379 37.2622ZM446.558 30.423C446.372 28.2512 446.276 25.8785 446.276 23.3H436.276C436.276 26.1215 436.381 28.7822 436.594 31.277L446.558 30.423ZM446.276 23.3V14.35H436.276V23.3H446.276ZM441.276 19.35H449.226V9.35H441.276V19.35ZM444.226 14.35V23.3H454.226V14.35H444.226ZM444.876 45.05C444.876 45.2353 444.846 45.1983 444.914 45.0386C444.948 44.9602 444.996 44.873 445.061 44.7875C445.124 44.7023 445.188 44.6394 445.238 44.598L451.614 52.302C453.928 50.3868 454.876 47.7263 454.876 45.05H444.876ZM445.172 44.6537C445.14 44.681 445.126 44.6894 445.129 44.6875C445.132 44.6854 445.147 44.6772 445.171 44.6684C445.194 44.6594 445.216 44.6539 445.232 44.6511C445.248 44.6483 445.247 44.65 445.226 44.65V54.65C447.651 54.65 449.865 53.8023 451.68 52.2463L445.172 44.6537ZM445.226 44.65C445.205 44.65 445.202 44.6484 445.211 44.65C445.22 44.6517 445.233 44.655 445.246 44.6595C445.258 44.664 445.259 44.666 445.249 44.6599C445.238 44.6536 445.21 44.6357 445.164 44.598L438.788 52.302C440.607 53.8073 442.806 54.65 445.226 54.65V44.65ZM445.23 44.6537C445.286 44.7017 445.351 44.769 445.413 44.8549C445.476 44.9409 445.52 45.0251 445.55 45.0963C445.609 45.2398 445.576 45.256 445.576 45.05H435.576C435.576 47.6663 436.465 50.3116 438.722 52.2463L445.23 44.6537ZM445.576 45.05C445.576 44.844 445.609 44.8602 445.55 45.0037C445.52 45.0749 445.476 45.1591 445.413 45.245C445.351 45.331 445.286 45.3983 445.23 45.4463L438.722 37.8537C436.465 39.7884 435.576 42.4337 435.576 45.05H445.576ZM445.164 45.502C445.21 45.4643 445.238 45.4464 445.249 45.4401C445.259 45.434 445.258 45.436 445.246 45.4405C445.233 45.445 445.22 45.4483 445.211 45.45C445.202 45.4516 445.205 45.45 445.226 45.45V35.45C442.806 35.45 440.607 36.2927 438.788 37.798L445.164 45.502ZM445.226 45.45C445.247 45.45 445.248 45.4516 445.232 45.4489C445.216 45.4461 445.194 45.4406 445.171 45.4316C445.147 45.4228 445.132 45.4146 445.129 45.4125C445.126 45.4106 445.14 45.419 445.172 45.4463L451.68 37.8537C449.865 36.2977 447.651 35.45 445.226 35.45V45.45ZM445.238 45.502C445.188 45.4606 445.124 45.3977 445.061 45.3125C444.996 45.227 444.948 45.1398 444.914 45.0614C444.846 44.9017 444.876 44.8647 444.876 45.05H454.876C454.876 42.3737 453.928 39.7132 451.614 37.798L445.238 45.502Z" fill="#22DF03"/>
<rect y="65" width="600" height="5" rx="2.5" fill="#D3FFCC"/>
</svg>
