<svg width="46" height="47" viewBox="0 0 46 47" fill="none" xmlns="http://www.w3.org/2000/svg">
<path d="M0 20.5C0 9.45431 8.95431 0.5 20 0.5H46V26.5C46 37.5457 37.0457 46.5 26 46.5H0V20.5Z" fill="#22DF03"/>
<path d="M17.688 32.172C17.9227 32.1933 18.232 32.2147 18.616 32.236C19 32.236 19.5227 32.236 20.184 32.236C22.8933 32.236 24.9093 31.5533 26.232 30.188C27.576 28.8013 28.248 26.8707 28.248 24.396C28.248 21.8787 27.5973 19.948 26.296 18.604C24.9947 17.26 22.9787 16.588 20.248 16.588C19.0533 16.588 18.2 16.62 17.688 16.684V32.172ZM32.472 24.396C32.472 26.316 32.1733 27.9907 31.576 29.42C30.9787 30.828 30.1253 32.012 29.016 32.972C27.928 33.9107 26.6053 34.6147 25.048 35.084C23.512 35.532 21.8053 35.756 19.928 35.756C19.032 35.756 18.0187 35.7133 16.888 35.628C15.7573 35.564 14.68 35.4147 13.656 35.18V13.644C14.68 13.4093 15.768 13.26 16.92 13.196C18.072 13.132 19.096 13.1 19.992 13.1C21.848 13.1 23.544 13.324 25.08 13.772C26.616 14.1987 27.928 14.8813 29.016 15.82C30.1253 16.7373 30.9787 17.9107 31.576 19.34C32.1733 20.748 32.472 22.4333 32.472 24.396Z" fill="#F2F2F2"/>
</svg>
